<?xml version="1.0" encoding="UTF-8"?>
<svg id="Layer_1" data-name="Layer 1" xmlns="http://www.w3.org/2000/svg" version="1.1" viewBox="0 0 1024 1024">
  <defs>
    <style>
      .cls-1 {
        fill: #2a6cff;
        fill-rule: evenodd;
        stroke: #2a6cff;
        stroke-linecap: round;
        stroke-miterlimit: 10;
        stroke-width: 33px;
      }
    </style>
  </defs>
  <path class="cls-1" d="M363.56,680.851c-20.609-19.141-37.706-42.01-50.218-67.535H93.072c5.5,23.28,12.853,45.843,21.898,67.535h157.433c53.998,79.149,144.904,131.107,247.948,131.107,130.107,0,240.867-82.834,282.414-198.642h-75.405c-37.493,76.463-116.098,129.108-207.009,129.108-60.559,0-115.669-23.364-156.791-61.57v-.003ZM947.596,613.316c-45.751,193.617-219.656,337.711-427.245,337.711-155.429,0-291.996-80.777-370.014-202.631h86.031c67.778,81.332,169.839,133.097,283.983,133.097,168.929,0,311.371-113.376,355.413-268.177h71.832ZM292.08,478.228H82.597c-.843,11.148-1.273,22.412-1.273,33.778s.424,22.624,1.273,33.766h209.483c-1.62-11.03-2.474-22.298-2.474-33.766s.854-22.747,2.474-33.778ZM849.086,343.149c11.011,21.382,19.989,43.981,26.689,67.535h71.854c-5.5-23.283-12.859-45.849-21.904-67.535-9.849-23.632-21.709-46.223-35.372-67.544-78.013-121.857-214.58-202.631-370.003-202.631s-291.996,80.774-370.009,202.631h86.025c67.778-81.332,169.834-133.089,283.983-133.089s216.205,51.756,283.978,133.089c17.264,20.718,32.312,43.35,44.757,67.544ZM191.615,343.149h-76.645c-9.045,21.686-16.404,44.249-21.898,67.535h220.27c12.513-25.525,29.621-48.392,50.23-67.535,41.117-38.208,96.226-61.567,156.785-61.567s115.663,23.359,156.785,61.567c20.614,19.14,37.711,42.01,50.224,67.535h75.405c-8.643-24.093-20.285-46.748-34.472-67.535-17.504-25.656-38.878-48.451-63.295-67.544-50.905-39.825-115.009-63.557-184.647-63.557s-133.748,23.736-184.653,63.557c-24.417,19.093-45.791,41.888-63.295,67.544h-80.794ZM521.328,438.592c28.364,0,52.971,16.08,65.193,39.632h372.549c.849,11.148,1.273,22.412,1.273,33.778s-.424,22.624-1.273,33.766h-372.549c-12.223,23.548-36.829,39.64-65.193,39.64-40.542,0-73.407-32.867-73.407-73.406s32.865-73.406,73.407-73.406v-.003Z"/>
</svg>